<?xml version="1.0" encoding="utf-8"?>
<!-- Generator: Adobe Illustrator 26.3.1, SVG Export Plug-In . SVG Version: 6.00 Build 0)  -->
<svg version="1.1" id="圖層_1" xmlns="http://www.w3.org/2000/svg" xmlns:xlink="http://www.w3.org/1999/xlink" x="0px" y="0px"
	 viewBox="0 0 94.01 26.61" style="enable-background:new 0 0 94.01 26.61;" xml:space="preserve">
<style type="text/css">
	.st0{fill:#FDFDFE;}
</style>
<g>
	<path class="st0" d="M0,0.27h2.58v26.08H0V0.27z M1.74,12.21h15.55v2.49H1.74V12.21z M15.89,0.27h2.58v26.08h-2.58V0.27z"/>
	<path class="st0" d="M28.6,25.48c-1.37-0.75-2.41-1.85-3.13-3.28c-0.72-1.43-1.08-3.17-1.08-5.2V9.61c0-2.03,0.36-3.77,1.08-5.2
		c0.72-1.43,1.76-2.53,3.13-3.28C29.96,0.38,31.62,0,33.55,0c1.94,0,3.59,0.38,4.96,1.13c1.37,0.75,2.41,1.85,3.13,3.28
		c0.72,1.43,1.08,3.17,1.08,5.2V17c0,2.03-0.36,3.77-1.08,5.2c-0.72,1.43-1.76,2.53-3.13,3.28s-3.02,1.13-4.96,1.13
		C31.62,26.61,29.96,26.24,28.6,25.48z M37.11,23.38c0.99-0.56,1.74-1.36,2.25-2.42c0.51-1.06,0.77-2.33,0.77-3.83V9.49
		c0-1.49-0.26-2.77-0.77-3.83c-0.51-1.06-1.26-1.86-2.25-2.42c-0.99-0.56-2.17-0.83-3.56-0.83c-1.39,0-2.57,0.28-3.56,0.83
		c-0.99,0.56-1.74,1.36-2.25,2.42c-0.51,1.06-0.77,2.33-0.77,3.83v7.64c0,1.49,0.26,2.77,0.77,3.83c0.51,1.06,1.26,1.87,2.25,2.42
		c0.99,0.56,2.17,0.83,3.56,0.83C34.94,24.21,36.13,23.93,37.11,23.38z"/>
	<path class="st0" d="M68.09,0.27h2.71v26.08h-2.58V3.95l0.27,1.15l-7.85,17.63H58.8L50.95,5.45l0.27-1.51v22.4h-2.58V0.27h2.71
		l8.38,18.83L68.09,0.27z"/>
	<path class="st0" d="M77.26,0.27h2.58v26.08h-2.58V0.27z M79.03,0.27h14.97v2.4H79.03V0.27z M79.03,12.19h13v2.4h-13V12.19z
		 M79.03,23.94h14.97v2.4H79.03V23.94z"/>
</g>
</svg>
