<?xml version="1.0" encoding="utf-8"?>
<!-- Generator: Adobe Illustrator 26.3.1, SVG Export Plug-In . SVG Version: 6.00 Build 0)  -->
<svg version="1.1" id="圖層_1" xmlns="http://www.w3.org/2000/svg" xmlns:xlink="http://www.w3.org/1999/xlink" x="0px" y="0px"
	 viewBox="0 0 191.39 26.61" style="enable-background:new 0 0 191.39 26.61;" xml:space="preserve">
<style type="text/css">
	.st0{fill:#FDFDFE;}
</style>
<g>
	<path class="st0" d="M2.58,26.34H0V0.27h2.58V26.34z"/>
	<path class="st0" d="M9.58,0.27h2.6l15.14,23.49l-1.06-0.72V0.27h2.58v26.06H26.2L10.76,2.65l1.4,1.02v22.65H9.58V0.27z"/>
	<path class="st0" d="M39.56,26.25c-1.12-0.24-2.17-0.6-3.15-1.08c-0.97-0.48-1.89-1.08-2.74-1.79l1.56-2.04
		c1.09,0.96,2.29,1.67,3.61,2.15c1.31,0.48,2.74,0.72,4.29,0.72c2.24,0,3.97-0.44,5.19-1.33s1.84-2.13,1.84-3.73v-0.02
		c0-0.99-0.27-1.79-0.8-2.38c-0.53-0.6-1.22-1.05-2.06-1.35c-0.84-0.3-1.93-0.57-3.25-0.83c-0.04-0.01-0.08-0.02-0.12-0.03
		c-0.04-0.01-0.09-0.01-0.13-0.03l-0.52-0.11c-1.83-0.35-3.29-0.71-4.39-1.08s-2.04-1.02-2.81-1.92c-0.77-0.9-1.16-2.15-1.16-3.76
		V7.64c0-1.61,0.36-2.99,1.08-4.13c0.72-1.14,1.78-2.01,3.17-2.61c1.39-0.6,3.05-0.9,5-0.9C45.09,0,46,0.1,46.9,0.3
		c0.9,0.2,1.79,0.51,2.67,0.91s1.75,0.91,2.61,1.52l-1.52,2.03c-1.12-0.79-2.22-1.38-3.3-1.77S45.22,2.4,44.17,2.4
		c-2.13,0-3.78,0.45-4.95,1.35c-1.17,0.9-1.76,2.16-1.76,3.78v0.02c0,0.98,0.29,1.75,0.88,2.32c0.58,0.57,1.31,0.99,2.18,1.26
		c0.87,0.27,2.05,0.56,3.56,0.86c0.05,0.01,0.1,0.02,0.15,0.04c0.05,0.01,0.11,0.02,0.17,0.04c0.07,0.01,0.14,0.03,0.21,0.04
		c0.06,0.02,0.13,0.03,0.21,0.04c1.64,0.33,3,0.72,4.09,1.15c1.09,0.43,1.99,1.1,2.72,2.02c0.72,0.91,1.08,2.15,1.08,3.7v0.04
		c0,1.59-0.38,2.95-1.13,4.08s-1.84,1.99-3.27,2.58c-1.43,0.59-3.15,0.89-5.17,0.89C41.87,26.61,40.68,26.49,39.56,26.25z"/>
	<path class="st0" d="M54.32,0.27h18.4v2.4h-18.4V0.27z M62.23,1.33h2.58v25.02h-2.58V1.33z"/>
	<path class="st0" d="M82.33,0.27h3.12l9.61,26.08H92.2l-8.3-23.37l-8.3,23.37h-2.87L82.33,0.27z M77.15,17.61h13.72v2.4H77.15
		V17.61z"/>
	<path class="st0" d="M116.3,13.02v3.84c0,2.18-0.34,3.99-1.01,5.43c-0.68,1.45-1.69,2.53-3.04,3.25c-1.35,0.72-3.04,1.08-5.08,1.08
		c-2.06,0-3.77-0.34-5.14-1.02c-1.37-0.68-2.39-1.7-3.08-3.06c-0.68-1.36-1.02-3.06-1.02-5.1V9.74c0-2.18,0.34-3.98,1.01-5.42
		c0.68-1.44,1.69-2.52,3.04-3.24c1.35-0.72,3.04-1.08,5.07-1.08c1.69,0,3.14,0.29,4.36,0.86c1.22,0.57,2.22,1.43,3,2.57
		c0.78,1.14,1.33,2.58,1.67,4.31h-2.8c-0.31-1.2-0.74-2.19-1.3-2.98c-0.56-0.79-1.24-1.38-2.06-1.78c-0.82-0.39-1.77-0.59-2.86-0.59
		c-1.46,0-2.67,0.27-3.64,0.82c-0.97,0.54-1.69,1.36-2.18,2.44c-0.48,1.08-0.73,2.44-0.73,4.08v7.69c0,1.52,0.24,2.78,0.73,3.77
		c0.49,1,1.23,1.75,2.21,2.25c0.99,0.5,2.22,0.75,3.7,0.75c1.45,0,2.64-0.26,3.58-0.77c0.94-0.51,1.64-1.31,2.12-2.39
		c0.47-1.08,0.71-2.46,0.71-4.14v-1.49h-6.31v-2.4H116.3z"/>
	<path class="st0" d="M122.22,0.25h2.58v26.09h-2.58V0.25z M123.81,12.91h8.9c0.97,0,1.82-0.21,2.56-0.64
		c0.73-0.42,1.3-1.02,1.7-1.8s0.61-1.67,0.62-2.69c0-1.02-0.2-1.91-0.6-2.69c-0.4-0.78-0.97-1.38-1.7-1.8
		c-0.74-0.42-1.59-0.64-2.57-0.64h-8.9v-2.4h8.75c1.51,0,2.83,0.31,3.97,0.93c1.14,0.62,2.03,1.5,2.65,2.65
		c0.63,1.14,0.94,2.46,0.94,3.95s-0.31,2.81-0.94,3.95c-0.63,1.14-1.52,2.02-2.66,2.65c-1.15,0.62-2.47,0.93-3.96,0.93h-8.75V12.91z
		 M132.17,14.51l2.38-0.83l6.67,12.66h-3.08L132.17,14.51z"/>
	<path class="st0" d="M152.54,0.27h3.12l9.61,26.08h-2.87l-8.3-23.37l-8.3,23.37h-2.87L152.54,0.27z M147.36,17.61h13.72v2.4h-13.72
		V17.61z"/>
	<path class="st0" d="M188.68,0.27h2.71v26.08h-2.58V3.95l0.27,1.15l-7.85,17.63h-1.83l-7.85-17.27l0.27-1.51v22.4h-2.58V0.27h2.71
		l8.38,18.83L188.68,0.27z"/>
</g>
</svg>
