<?xml version="1.0" encoding="utf-8"?>
<!-- Generator: Adobe Illustrator 26.3.1, SVG Export Plug-In . SVG Version: 6.00 Build 0)  -->
<svg version="1.1" id="圖層_1" xmlns="http://www.w3.org/2000/svg" xmlns:xlink="http://www.w3.org/1999/xlink" x="0px" y="0px"
	 viewBox="0 0 101.06 26.61" style="enable-background:new 0 0 101.06 26.61;" xml:space="preserve">
<style type="text/css">
	.st0{fill:#FDFDFE;}
</style>
<g>
	<path class="st0" d="M14.11,0.27h1.79l5.7,22.42l5.51-22.42h2.91l-7.08,26.08h-2.65L15.12,5.79L9.74,26.34H7.08L0,0.27h2.91
		l5.5,22.42L14.11,0.27z"/>
	<path class="st0" d="M37.1,25.48c-1.37-0.75-2.41-1.85-3.13-3.28c-0.72-1.43-1.08-3.17-1.08-5.2V9.61c0-2.03,0.36-3.77,1.08-5.2
		c0.72-1.43,1.76-2.53,3.13-3.28C38.46,0.38,40.12,0,42.05,0c1.94,0,3.59,0.38,4.96,1.13c1.37,0.75,2.41,1.85,3.13,3.28
		c0.72,1.43,1.08,3.17,1.08,5.2V17c0,2.03-0.36,3.77-1.08,5.2c-0.72,1.43-1.76,2.53-3.13,3.28s-3.02,1.13-4.96,1.13
		C40.12,26.61,38.46,26.24,37.1,25.48z M45.61,23.38c0.99-0.56,1.74-1.36,2.25-2.42c0.51-1.06,0.77-2.33,0.77-3.83V9.49
		c0-1.49-0.26-2.77-0.77-3.83c-0.51-1.06-1.26-1.86-2.25-2.42c-0.99-0.56-2.17-0.83-3.56-0.83c-1.39,0-2.57,0.28-3.56,0.83
		c-0.99,0.56-1.74,1.36-2.25,2.42c-0.51,1.06-0.77,2.33-0.77,3.83v7.64c0,1.49,0.26,2.77,0.77,3.83c0.51,1.06,1.26,1.87,2.25,2.42
		c0.99,0.56,2.17,0.83,3.56,0.83C43.44,24.21,44.63,23.93,45.61,23.38z"/>
	<path class="st0" d="M57.14,0.25h2.58v26.09h-2.58V0.25z M58.73,12.91h8.89c0.97,0,1.82-0.21,2.56-0.64c0.73-0.42,1.3-1.02,1.7-1.8
		s0.61-1.67,0.62-2.69c0-1.02-0.2-1.91-0.6-2.69c-0.4-0.78-0.97-1.38-1.7-1.8c-0.74-0.42-1.59-0.64-2.57-0.64h-8.89v-2.4h8.75
		c1.51,0,2.83,0.31,3.97,0.93s2.03,1.5,2.65,2.65c0.63,1.14,0.94,2.46,0.94,3.95s-0.31,2.81-0.94,3.95
		c-0.63,1.14-1.52,2.02-2.66,2.65c-1.15,0.62-2.47,0.93-3.96,0.93h-8.75V12.91z M67.09,14.51l2.38-0.83l6.67,12.66h-3.09
		L67.09,14.51z"/>
	<path class="st0" d="M81.08,0.27h2.58v26.08h-2.58V0.27z M82.33,18.4L96.63,0.27h3.34L83.41,20.39L82.33,18.4z M89.69,12.43
		l1.49-2.67l9.88,16.59h-3.08L89.69,12.43z"/>
</g>
</svg>
